name analog
datacolumns 19
datarows 46
range 0.47500000000000003 0.4975
endheader
time	ground_force_vx	ground_force_vy	ground_force_vz	ground_force_px	ground_force_py	ground_force_pz	l_ground_force_vx	l_ground_force_vy	l_ground_force_vz	l_ground_force_px	l_ground_force_py	l_ground_force_pz	ground_torque_x	ground_torque_y	ground_torque_z	l_ground_torque_x	l_ground_torque_y	l_ground_torque_z
0.47500000000000003	-0.0	-0.0	-0.0	-0.0	-0.0	-0.0	2.051316022872925	3.36277174949646	-752.6566772460938	-0.0	-0.0	-0.0	-0.0	-0.0	-0.0	213655.671875	10166.2138671875	-679.9671630859375
0.47550000000000003	-0.0	-0.0	-0.0	-0.0	-0.0	-0.0	2.072262048721313	3.235562801361084	-751.870361328125	-0.0	-0.0	-0.0	-0.0	-0.0	-0.0	213662.859375	9892.9873046875	-679.6119384765625
0.47600000000000003	-0.0	-0.0	-0.0	-0.0	-0.0	-0.0	2.1546332836151123	2.561328887939453	-753.4188842773438	-0.0	-0.0	-0.0	-0.0	-0.0	-0.0	213481.703125	9576.6650390625	-503.5310363769531
0.47650000000000003	-0.0	-0.0	-0.0	-0.0	-0.0	-0.0	2.766964197158813	2.2638325691223145	-752.2719116210938	-0.0	-0.0	-0.0	-0.0	-0.0	-0.0	212926.953125	9755.5888671875	-430.3936767578125
0.47700000000000004	-0.0	-0.0	-0.0	-0.0	-0.0	-0.0	2.7118163108825684	1.7685551643371582	-751.723388671875	-0.0	-0.0	-0.0	-0.0	-0.0	-0.0	212474.578125	9647.0908203125	-411.525634765625
0.47750000000000004	-0.0	-0.0	-0.0	-0.0	-0.0	-0.0	2.619647979736328	1.2066621780395508	-751.9610595703125	-0.0	-0.0	-0.0	-0.0	-0.0	-0.0	212080.6875	9659.296875	-272.7091369628906
0.47800000000000004	-0.0	-0.0	-0.0	-0.0	-0.0	-0.0	2.4717605113983154	0.9755679368972778	-752.040771484375	-0.0	-0.0	-0.0	-0.0	-0.0	-0.0	211858.8125	9585.0419921875	-413.2908325195313
0.47850000000000004	-0.0	-0.0	-0.0	-0.0	-0.0	-0.0	2.048544883728028	0.2670692801475525	-750.4102172851562	-0.0	-0.0	-0.0	-0.0	-0.0	-0.0	211287.765625	9438.2119140625	-363.8678894042969
0.47900000000000004	-0.0	-0.0	-0.0	-0.0	-0.0	-0.0	2.217726469039917	0.0284922495484352	-750.2960815429688	-0.0	-0.0	-0.0	-0.0	-0.0	-0.0	210727.734375	9476.6376953125	-324.0684814453125
0.47950000000000004	-0.0	-0.0	-0.0	-0.0	-0.0	-0.0	2.5774357318878174	-0.3906467854976654	-748.39501953125	-0.0	-0.0	-0.0	-0.0	-0.0	-0.0	210068.65625	9477.6728515625	-325.8934936523437
0.48	-0.0	-0.0	-0.0	-0.0	-0.0	-0.0	2.765278577804565	-0.5337244272232056	-746.8803100585938	-0.0	-0.0	-0.0	-0.0	-0.0	-0.0	209372.953125	9080.9453125	-57.49697494506836
0.4805	-0.0	-0.0	-0.0	-0.0	-0.0	-0.0	3.069943904876709	-1.032423734664917	-746.44189453125	-0.0	-0.0	-0.0	-0.0	-0.0	-0.0	208966.96875	9448.154296875	-53.95752716064453
0.481	-0.0	-0.0	-0.0	-0.0	-0.0	-0.0	3.446819543838501	-1.464747428894043	-744.900634765625	-0.0	-0.0	-0.0	-0.0	-0.0	-0.0	208329.515625	9278.935546875	104.06681060791016
0.4815	-0.0	-0.0	-0.0	-0.0	-0.0	-0.0	3.7959938049316406	-2.1566648483276367	-743.609130859375	-0.0	-0.0	-0.0	-0.0	-0.0	-0.0	207609.859375	9195.548828125	266.7045288085937
0.482	-0.0	-0.0	-0.0	-0.0	-0.0	-0.0	4.332608699798584	-2.716736316680908	-742.9386596679688	-0.0	-0.0	-0.0	-0.0	-0.0	-0.0	207090.421875	9265.7978515625	326.3182678222656
0.4825	-0.0	-0.0	-0.0	-0.0	-0.0	-0.0	4.10560417175293	-3.15301775932312	-739.0529174804688	-0.0	-0.0	-0.0	-0.0	-0.0	-0.0	205877.984375	9275.5146484375	219.23333740234372
0.483	-0.0	-0.0	-0.0	-0.0	-0.0	-0.0	4.106083869934082	-3.767405271530152	-736.8505249023438	-0.0	-0.0	-0.0	-0.0	-0.0	-0.0	204658.078125	9570.6806640625	67.63451385498047
0.4835	-0.0	-0.0	-0.0	-0.0	-0.0	-0.0	3.82040810585022	-4.172199726104736	-735.646240234375	-0.0	-0.0	-0.0	-0.0	-0.0	-0.0	203762.40625	9551.876953125	126.3678970336914
0.484	-0.0	-0.0	-0.0	-0.0	-0.0	-0.0	3.6237757205963135	-5.387622833251953	-732.7903442382812	-0.0	-0.0	-0.0	-0.0	-0.0	-0.0	202432.96875	9862.0068359375	0.0913605317473411
0.4845	-0.0	-0.0	-0.0	-0.0	-0.0	-0.0	3.80717134475708	-5.700023651123047	-729.3422241210938	-0.0	-0.0	-0.0	-0.0	-0.0	-0.0	201467.984375	9803.5419921875	56.199649810791016
0.485	-0.0	-0.0	-0.0	-0.0	-0.0	-0.0	3.771899700164795	-6.18563175201416	-725.3626098632812	-0.0	-0.0	-0.0	-0.0	-0.0	-0.0	200431.296875	10066.853515625	117.02538299560548
0.4855	-0.0	-0.0	-0.0	-0.0	-0.0	-0.0	3.5959131717681885	-6.5389814376831055	-722.1204223632812	-0.0	-0.0	-0.0	-0.0	-0.0	-0.0	199449.984375	10082.95703125	-15.770397186279297
0.486	-0.0	-0.0	-0.0	-0.0	-0.0	-0.0	3.107961416244507	-7.233166694641113	-720.998046875	-0.0	-0.0	-0.0	-0.0	-0.0	-0.0	198952.734375	10304.4638671875	-176.57980346679688
0.4865	-0.0	-0.0	-0.0	-0.0	-0.0	-0.0	3.1714582443237305	-7.163879871368408	-719.7522583007812	-0.0	-0.0	-0.0	-0.0	-0.0	-0.0	198163.875	10263.958984375	-151.43251037597656
0.487	-0.0	-0.0	-0.0	-0.0	-0.0	-0.0	3.4094107151031494	-7.240895271301269	-718.181396484375	-0.0	-0.0	-0.0	-0.0	-0.0	-0.0	197944.890625	10436.6904296875	-166.54953002929688
0.4875	-0.0	-0.0	-0.0	-0.0	-0.0	-0.0	3.3880717754364014	-7.241215705871582	-716.3746337890625	-0.0	-0.0	-0.0	-0.0	-0.0	-0.0	197759.3125	10420.447265625	-159.58297729492188
0.488	-0.0	-0.0	-0.0	-0.0	-0.0	-0.0	3.371009826660156	-6.008732795715332	-715.4229125976562	-0.0	-0.0	-0.0	-0.0	-0.0	-0.0	197250.640625	11011.7548828125	-235.4811248779297
0.4885	-0.0	-0.0	-0.0	-0.0	-0.0	-0.0	3.1319563388824463	-5.956899166107178	-713.3829345703125	-0.0	-0.0	-0.0	-0.0	-0.0	-0.0	197678.203125	11042.6455078125	-253.0579376220703
0.489	-0.0	-0.0	-0.0	-0.0	-0.0	-0.0	2.798470973968506	-5.554636955261231	-715.06298828125	-0.0	-0.0	-0.0	-0.0	-0.0	-0.0	197278.640625	11303.5	-368.4583740234375
0.4895	-0.0	-0.0	-0.0	-0.0	-0.0	-0.0	2.588045358657837	-5.098562240600586	-714.9593505859375	-0.0	-0.0	-0.0	-0.0	-0.0	-0.0	197081.921875	11486.3115234375	-464.180908203125
0.49	-0.0	-0.0	-0.0	-0.0	-0.0	-0.0	2.223038673400879	-4.769371032714844	-714.3538818359375	-0.0	-0.0	-0.0	-0.0	-0.0	-0.0	196978.671875	11654.865234375	-531.8211669921875
0.4905	-0.0	-0.0	-0.0	-0.0	-0.0	-0.0	1.7259737253189087	-4.372647762298584	-714.0299072265625	-0.0	-0.0	-0.0	-0.0	-0.0	-0.0	197250.640625	12012.572265625	-624.566162109375
0.491	-0.0	-0.0	-0.0	-0.0	-0.0	-0.0	1.6398975849151611	-3.794034957885742	-713.7154541015625	-0.0	-0.0	-0.0	-0.0	-0.0	-0.0	197219.3125	12257.943359375	-682.06640625
0.4915	-0.0	-0.0	-0.0	-0.0	-0.0	-0.0	1.6201759576797483	-3.096149682998657	-713.581298828125	-0.0	-0.0	-0.0	-0.0	-0.0	-0.0	197176.0625	12457.099609375	-696.9484252929688
0.492	-0.0	-0.0	-0.0	-0.0	-0.0	-0.0	1.776612401008606	-3.000550985336304	-712.3164672851562	-0.0	-0.0	-0.0	-0.0	-0.0	-0.0	197012.890625	12671.423828125	-738.6952514648438
0.4925	-0.0	-0.0	-0.0	-0.0	-0.0	-0.0	1.468976974487305	-2.0703163146972656	-712.2715454101562	-0.0	-0.0	-0.0	-0.0	-0.0	-0.0	196972.984375	12343.2138671875	-727.2271728515625
0.493	-0.0	-0.0	-0.0	-0.0	-0.0	-0.0	1.5159441232681274	-0.8514497876167297	-712.2606201171875	-0.0	-0.0	-0.0	-0.0	-0.0	-0.0	197057.140625	12448.896484375	-800.0565185546875
0.4935	-0.0	-0.0	-0.0	-0.0	-0.0	-0.0	1.9655694961547847	-0.5940049290657043	-710.724365234375	-0.0	-0.0	-0.0	-0.0	-0.0	-0.0	197238.90625	12443.1787109375	-762.2322998046875
0.494	-0.0	-0.0	-0.0	-0.0	-0.0	-0.0	2.583406686782837	0.0021493365056812	-711.2218017578125	-0.0	-0.0	-0.0	-0.0	-0.0	-0.0	197430.03125	12304.1484375	-618.2194213867188
0.4945	-0.0	-0.0	-0.0	-0.0	-0.0	-0.0	3.1313018798828125	0.7029037475585938	-709.3137817382812	-0.0	-0.0	-0.0	-0.0	-0.0	-0.0	197272.234375	12263.7099609375	-524.4741821289062
0.495	-0.0	-0.0	-0.0	-0.0	-0.0	-0.0	3.413325309753418	0.7095907330513	-708.4288330078125	-0.0	-0.0	-0.0	-0.0	-0.0	-0.0	196990.0625	12470.517578125	-416.4266662597656
0.4955	-0.0	-0.0	-0.0	-0.0	-0.0	-0.0	2.9106640815734863	1.0324651002883911	-707.0086669921875	-0.0	-0.0	-0.0	-0.0	-0.0	-0.0	196642.8125	12500.7880859375	-656.2626342773438
0.496	-0.0	-0.0	-0.0	-0.0	-0.0	-0.0	2.4858226776123047	0.5261054039001465	-705.3089599609375	-0.0	-0.0	-0.0	-0.0	-0.0	-0.0	196144.5	12582.126953125	-769.3634643554688
0.4965	-0.0	-0.0	-0.0	-0.0	-0.0	-0.0	2.1743311882019043	0.1191611364483833	-705.964599609375	-0.0	-0.0	-0.0	-0.0	-0.0	-0.0	195795.59375	12158.8203125	-808.77880859375
0.497	-0.0	-0.0	-0.0	-0.0	-0.0	-0.0	2.397910118103028	-0.1659421175718307	-704.7727661132812	-0.0	-0.0	-0.0	-0.0	-0.0	-0.0	195682.78125	12181.146484375	-844.1005249023438
0.4975	-0.0	-0.0	-0.0	-0.0	-0.0	-0.0	2.818305015563965	0.0749240219593048	-703.7957763671875	-0.0	-0.0	-0.0	-0.0	-0.0	-0.0	195362.15625	12083.6953125	-810.6951904296875
